<?xml version="1.0" encoding="utf-8"?>
<!-- Generator: Adobe Illustrator 16.0.0, SVG Export Plug-In . SVG Version: 6.00 Build 0)  -->
<!DOCTYPE svg PUBLIC "-//W3C//DTD SVG 1.1//EN" "http://www.w3.org/Graphics/SVG/1.1/DTD/svg11.dtd">
<svg version="1.1" id="Layer_1" xmlns="http://www.w3.org/2000/svg" xmlns:xlink="http://www.w3.org/1999/xlink" x="0px" y="0px"
	 width="40.5px" height="18px" viewBox="0 0 40.5 18" enable-background="new 0 0 40.5 18" xml:space="preserve">
<g enable-background="new    ">
	<path d="M4.751,4.168c0.546-0.111,1.541-0.195,2.507-0.195c1.274,0,2.059,0.153,2.704,0.602c0.588,0.351,0.98,0.967,0.98,1.766
		c0,0.868-0.546,1.667-1.569,2.045v0.028c0.994,0.252,1.905,1.036,1.905,2.338c0,0.842-0.364,1.5-0.911,1.947
		c-0.672,0.588-1.779,0.883-3.501,0.883c-0.953,0-1.681-0.07-2.115-0.127V4.168z M6.46,7.895h0.882c1.19,0,1.863-0.561,1.863-1.358
		c0-0.883-0.672-1.289-1.765-1.289c-0.504,0-0.798,0.028-0.98,0.07V7.895z M6.46,12.236c0.224,0.029,0.518,0.043,0.91,0.043
		c1.107,0,2.087-0.42,2.087-1.582c0-1.094-0.953-1.542-2.143-1.542H6.46V12.236z"/>
	<path d="M14.665,10.809l-0.812,2.676h-1.779l3.026-9.442h2.199l3.067,9.442h-1.849l-0.854-2.676H14.665z M17.368,9.506L16.625,7.18
		c-0.182-0.574-0.336-1.219-0.476-1.765h-0.028c-0.14,0.546-0.28,1.205-0.448,1.765l-0.729,2.326H17.368z"/>
	<path d="M28.148,13.203c-0.406,0.211-1.303,0.42-2.438,0.42c-2.997,0-4.818-1.877-4.818-4.748c0-3.109,2.158-4.986,5.043-4.986
		c1.135,0,1.947,0.237,2.297,0.42l-0.378,1.373c-0.448-0.196-1.064-0.364-1.849-0.364c-1.919,0-3.307,1.204-3.307,3.474
		c0,2.074,1.219,3.404,3.293,3.404c0.699,0,1.428-0.141,1.877-0.35L28.148,13.203z"/>
	<path d="M29.615,4.042h1.709v4.343h0.042c0.224-0.364,0.462-0.7,0.687-1.022l2.465-3.32h2.129l-3.25,4.021l3.461,5.421H34.84
		l-2.676-4.329l-0.84,1.008v3.32h-1.709V4.042z"/>
</g>
</svg>
